# xmcd
#
# Track frame offsets:
#	150
#	15740
#	30065
#	44328
#	59134
#	68442
#	81026
#	97030
#	108506
#	121947
#	134573
#	147784
#	162785
#	173274
#	186179
#
# Disc length: 2615 seconds
#
# Revision: 0
# Processed by: cddbd v1.5.2PL0 Copyright (c) Steve Scherf et al.
# Submitted via: audiograbber 1.83.01
#
DISCID=be0a350f
DTITLE=Sam Cooke -  Cooke's Tour (1960)
DYEAR=1900
DGENRE=
TTITLE0=Far Away Places
TTITLE1=Under Paris Skies
TTITLE2=South Of The Border (Down Mexico Way)
TTITLE3=Bali Ha'i
TTITLE4=The Coffee Song (They've Got An Awful Lot Of Coffee In Brazil)
TTITLE5=Arrivederci Roma (Goodbye To Rome
TTITLE6=London By Night
TTITLE7=Jamaica Farewell
TTITLE8=Galway Bay
TTITLE9=Sweet Leilani
TTITLE10=The Japanese Farewell Song
TTITLE11=The House I Live In
TTITLE12=I Belong To Your Heart
TTITLE13=Deep River
TTITLE14=I Fall In Love Every Day
EXTD=
EXTT0=
EXTT1=
EXTT2=
EXTT3=
EXTT4=
EXTT5=
EXTT6=
EXTT7=
EXTT8=
EXTT9=
EXTT10=
EXTT11=
EXTT12=
EXTT13=
EXTT14=
PLAYORDER=
